<svg width="608" height="360" viewBox="0 0 608 360" fill="none" xmlns="http://www.w3.org/2000/svg">
<path d="M303.95 359.9C471.679 359.9 607.65 349.473 607.65 336.61C607.65 323.748 471.679 313.32 303.95 313.32C136.221 313.32 0.25 323.748 0.25 336.61C0.25 349.473 136.221 359.9 303.95 359.9Z" fill="#E5F2FA"/>
<path d="M35.8691 332.4H70.7991V263.86H163.689V231.57H70.7991V181.02H168.989V147.41H35.8691V332.4Z" fill="#367FAA"/>
<path d="M257.11 147.15L174.01 332.4H211.86L227.74 297.47H324.6L340.21 332.4H378.32L295.22 147.15H257.11ZM241.76 264.91L276.16 186.04L310.56 264.91H241.75H241.76Z" fill="#367FAA"/>
<path d="M550.07 297.73C561.98 280.53 567.54 258.56 567.27 237.39C566.48 189.75 537.36 142.65 472.26 142.65C407.16 142.65 376.72 191.08 376.99 239.51C377.26 287.68 406.37 335.58 472.26 335.58C493.17 335.58 510.9 330.82 524.93 321.82L547.42 344.05L572.03 319.44L550.06 297.74L550.07 297.73ZM472.26 303.29C432.03 303.29 411.92 270.74 411.39 240.3C410.86 209.07 428.59 174.14 472.26 174.14C515.93 174.14 531.54 206.43 532.86 236.33C534.18 268.09 514.07 303.29 472.26 303.29Z" fill="#367FAA"/>
<path d="M456.12 318.63C456.12 318.63 453.89 320.09 452.14 320.34L449.15 324.77C449.15 324.77 449.78 326.34 450.96 327.55C450.96 327.55 458.92 322.71 456.12 318.63Z" fill="#F8C7A2"/>
<path d="M456.121 318.63C456.121 318.63 456.961 321.2 450.961 327.55C450.961 327.55 452.451 329.55 453.701 329.4C454.951 329.25 463.571 317.28 462.291 316.65C461.011 316.02 457.391 318.2 456.121 318.63Z" fill="#231816"/>
<path d="M378.131 311.91C378.131 311.91 411.551 296.06 416.881 296.91C422.211 297.76 453.121 319.83 453.121 319.83L449.421 326.24C449.421 326.24 419.431 310.87 416.881 311.05C416.881 311.05 389.981 331.42 376.641 330.93L378.131 311.91Z" fill="#445897"/>
<path d="M433.342 327.16C433.342 327.16 430.893 326.13 429.703 324.82H424.353C424.353 324.82 423.403 326.21 423.062 327.87C423.062 327.87 431.522 331.77 433.342 327.16Z" fill="#F8C7A2"/>
<path d="M433.342 327.16C433.342 327.16 431.682 329.29 423.062 327.87C423.062 327.87 422.242 330.23 423.062 331.18C423.882 332.13 438.622 332.6 438.432 331.18C438.242 329.76 434.412 327.98 433.342 327.17V327.16Z" fill="#231816"/>
<path d="M376.121 330.37C376.121 330.37 393.881 334.89 399.041 324.56C404.201 314.23 405.821 302.93 405.821 302.93C405.821 302.93 408.081 308.76 414.541 317.14C421.001 325.53 422.251 326.3 422.251 326.3H433.601C433.601 326.3 413.251 285.17 405.501 284.2C397.751 283.23 382.211 313.13 382.211 313.13L376.131 330.37H376.121Z" fill="#5874B7"/>
<path d="M371.241 270.29L373.531 279.87C373.531 279.87 367.951 278.97 365.621 276.7L366.041 269.74L371.241 270.29Z" fill="#FFC89F"/>
<path d="M373.291 278.84L365.681 275.78C365.681 275.78 362.511 278.84 360.781 284.32C353.751 306.5 376.051 331.04 376.051 331.04C376.051 331.04 389.321 318.54 387.411 305.28C387.411 305.28 385.651 283.96 373.301 278.84H373.291Z" fill="#D23F3F"/>
<path d="M380.741 252.23C380.741 252.23 384.111 252.51 384.511 250.03C384.511 250.03 381.591 249.47 378.761 247.85C376.401 246.49 367.361 243.49 364.791 248.94C364.791 248.94 361.481 248.25 360.661 256.17C359.831 264.1 359.371 270.54 366.001 271.48C366.001 271.48 376.581 253.63 380.751 252.22L380.741 252.23Z" fill="#C55919"/>
<path d="M381.002 260.52C380.552 257.5 380.742 252.23 380.742 252.23C380.742 252.23 375.372 250.42 371.552 250.91C367.722 251.41 366.562 258.67 366.562 258.67C365.642 257.22 363.662 259.12 363.182 260.7C362.712 262.27 365.052 263.14 365.052 263.14C365.052 263.14 363.432 269.1 365.992 271.49C368.562 273.88 376.252 273.92 378.702 272.05C380.192 270.91 380.882 268 381.092 265.21C381.602 265.28 382.122 265.26 382.252 264.92C382.432 264.47 381.622 262.31 381.022 260.83C381.012 260.73 381.002 260.61 380.992 260.52H381.002Z" fill="#F8C7A2"/>
<path d="M484.319 80.3301C484.319 80.3301 488.369 93.2701 482.439 102.22C482.439 102.22 479.419 93.1101 476.449 90.5201L484.319 80.3301Z" fill="#C55919"/>
<path d="M455.24 104.22C450.95 112.64 451.99 122.69 458.33 129.72C460.37 131.98 463.68 128.64 461.66 126.39C456.8 121.01 456.02 113.05 459.31 106.59C460.68 103.89 456.62 101.51 455.25 104.21L455.24 104.22Z" fill="#FECE9A"/>
<path d="M490.479 104.22C494.769 112.64 493.729 122.69 487.389 129.72C485.349 131.98 482.039 128.64 484.059 126.39C488.919 121.01 489.699 113.05 486.409 106.59C485.039 103.89 489.099 101.51 490.469 104.21L490.479 104.22Z" fill="#FECE9A"/>
<path d="M482.029 94.55C482.029 94.55 477.219 93.99 477.189 87.77C477.189 87.77 475.219 88.78 473.539 88.85C471.859 88.91 469.929 87.52 469.929 87.52C469.929 87.52 469.369 93.47 465.009 94.56C464.719 96.94 463.089 109.09 473.979 109.09C484.869 109.09 482.259 96.89 482.029 94.56V94.55Z" fill="#FECE9A"/>
<path d="M488.7 96.66L480.59 93.98C479.41 99.2 474.68 99.36 473.69 99.34C473.69 99.34 473.65 99.34 473.6 99.34C473.54 99.34 473.51 99.34 473.51 99.34C472.52 99.37 467.99 98.95 466.8 93.73L458.49 96.67L460.5 105.34C460.5 105.34 459.29 111.34 462.29 115.72C465.29 120.1 459.88 134.38 459.88 134.38H487.31C487.31 134.38 481.9 120.1 484.9 115.72C487.9 111.34 486.69 105.34 486.69 105.34L488.7 96.67V96.66Z" fill="#ED56B9"/>
<path d="M458.48 96.6602C458.48 96.6602 452.43 99.0002 452.35 110.42L459.15 112.9C459.15 112.9 460.79 110.42 460.61 106.13L458.48 96.6602Z" fill="#F97AD2"/>
<path d="M488.51 96.6602C488.51 96.6602 493.65 99.2902 493.73 110.72L487.03 112.9C487.03 112.9 485.53 110.58 486.28 106.31L488.51 96.6602Z" fill="#F97AD2"/>
<path d="M487.409 132.4H459.859C459.859 132.4 458.159 141.38 463.589 141.38H483.679C489.109 141.38 487.409 132.4 487.409 132.4Z" fill="#178496"/>
<path d="M494.729 129.24C494.729 129.94 494.169 130.5 493.469 130.5H453.469C452.769 130.5 452.209 129.94 452.209 129.24C452.209 128.54 452.779 127.98 453.469 127.98H493.469C494.169 127.98 494.729 128.55 494.729 129.24Z" fill="#CECDCC"/>
<path d="M491.81 127.37C491.7 129.1 490.2 130.51 488.47 130.51H458.47C456.74 130.51 455.24 129.1 455.13 127.37L453.95 108.55C453.84 106.82 455.17 105.42 456.9 105.42H490.05C491.78 105.42 493.1 106.83 493 108.55L491.82 127.37H491.81Z" fill="#E2E2E2"/>
<path d="M477.569 117.77C477.569 120.04 475.729 121.87 473.469 121.87C471.209 121.87 469.369 120.03 469.369 117.77C469.369 115.51 471.209 113.67 473.469 113.67C475.729 113.67 477.569 115.51 477.569 117.77Z" fill="#CECDCC"/>
<path d="M499.24 142.52C501.37 143.13 502.6 145.35 501.99 147.48C501.38 149.61 499.16 150.84 497.03 150.23L458.22 139.12C456.09 138.51 454.85 136.29 455.46 134.16C456.07 132.03 458.29 130.8 460.42 131.41L499.23 142.52H499.24Z" fill="#FECE9A"/>
<path d="M495.25 149.64C497.03 150.24 498.45 150.88 499.52 148.34C500.6 145.8 500.67 144 499.43 143.19C498.65 142.68 493.28 140.74 491.2 140.21C491.2 140.21 493.37 140.27 494.8 140.55C496.23 140.83 498.23 141.54 501.13 141.99C503.71 142.39 505.15 142.99 505.71 145.66C506.09 147.47 505.47 149.59 503.69 151.21C502.58 152.21 501.29 152.74 499.18 152.02C497.07 151.29 493.19 149.9 492.02 149.55C490.85 149.2 489.33 148.68 488.83 147.88C488.83 147.88 492.91 148.85 495.27 149.64H495.25Z" fill="#4A2551"/>
<path d="M497.28 140.78L459.3 129.91C456.21 129.03 452.99 130.81 452.11 133.9C451.23 136.99 453.01 140.21 456.1 141.09L494.08 151.96L497.28 140.78Z" fill="#22A6BC"/>
<path d="M448.48 142.52C446.35 143.13 445.12 145.35 445.73 147.48C446.34 149.61 448.56 150.84 450.69 150.23L489.5 139.12C491.63 138.51 492.87 136.29 492.26 134.16C491.65 132.03 489.43 130.8 487.29 131.41L448.48 142.52Z" fill="#FECE9A"/>
<path d="M452.47 149.64C450.69 150.24 449.27 150.88 448.2 148.34C447.13 145.8 447.05 144 448.29 143.19C449.07 142.68 454.44 140.74 456.52 140.21C456.52 140.21 454.35 140.27 452.92 140.55C451.49 140.83 449.49 141.54 446.59 141.99C444.01 142.39 442.58 142.99 442.01 145.66C441.63 147.47 442.25 149.59 444.03 151.21C445.14 152.21 446.43 152.74 448.54 152.02C450.65 151.29 454.53 149.9 455.7 149.55C456.88 149.2 458.39 148.68 458.89 147.88C458.89 147.88 454.81 148.85 452.45 149.64H452.47Z" fill="#4A2551"/>
<path d="M450.449 140.78L488.429 129.91C491.519 129.03 494.739 130.81 495.619 133.9C496.499 136.99 494.719 140.21 491.629 141.09L453.649 151.96L450.449 140.78Z" fill="#30AAC6"/>
<path d="M484.058 79.0499C484.058 86.4599 479.428 92.4599 473.738 92.4599C468.048 92.4599 463.408 86.4499 463.408 79.0499C463.408 71.6499 468.038 65.6299 473.738 65.6299C479.438 65.6299 484.058 71.6399 484.058 79.0499Z" fill="#FECE9A"/>
<path d="M464.929 80.7698C464.929 81.7198 464.339 82.4898 463.619 82.4898C462.899 82.4898 462.309 81.7198 462.309 80.7698C462.309 79.8198 462.899 79.0498 463.619 79.0498C464.339 79.0498 464.929 79.8198 464.929 80.7698Z" fill="#FECE9A"/>
<path d="M484.958 80.7698C484.958 81.7198 484.368 82.4898 483.648 82.4898C482.928 82.4898 482.338 81.7198 482.338 80.7698C482.338 79.8198 482.928 79.0498 483.648 79.0498C484.368 79.0498 484.958 79.8198 484.958 80.7698Z" fill="#FECE9A"/>
<path d="M464.18 79.23C464.18 79.23 471.44 78.45 473.11 71.87C473.11 71.87 479.04 78.34 483.08 79.23C483.08 79.23 483.8 78.76 484.65 79.68C484.65 79.68 486.36 63.89 473.72 64.54C461.08 65.19 462.83 79.4 462.83 79.4C462.83 79.4 463.65 78.65 464.17 79.23H464.18Z" fill="#C55919"/>
<path d="M462.42 81.46C462.42 81.46 459.96 96.82 466.97 102.22C466.97 102.22 467.24 95.1 469.37 90.68C469.37 90.68 465.77 88.41 463.62 82.49C463.62 82.49 462.84 82.49 462.42 81.46Z" fill="#C55919"/>
<path d="M395.642 269.85C395.642 269.85 395.901 269.78 396.431 270.12C397.131 270.59 397.541 272.57 397.251 273.37C396.971 274.16 392.602 281.93 391.572 282.52C390.542 283.08 390.021 282.12 390.021 282.12L395.642 269.85Z" fill="#454375"/>
<path d="M389.971 281.83C389.971 281.83 394.321 277.47 396.001 272.91C396.431 271.72 396.391 269.72 395.641 269.85C394.881 269.99 389.841 277.15 389.711 277.83C389.591 278.5 388.881 281.78 389.971 281.83Z" fill="#A2EDE2"/>
<mask id="mask0_49_2155" style="mask-type:luminance" maskUnits="userSpaceOnUse" x="389" y="269" width="8" height="13">
<path d="M389.971 281.83C389.971 281.83 394.321 277.47 396.001 272.91C396.431 271.72 396.391 269.72 395.641 269.85C394.881 269.99 389.841 277.15 389.711 277.83C389.591 278.5 388.881 281.78 389.971 281.83Z" fill="white"/>
</mask>
<g mask="url(#mask0_49_2155)">
<g opacity="0.4">
<path d="M390.022 272.8C390.022 272.8 398.522 272.82 399.122 273.29C399.712 273.75 397.972 274.52 397.972 274.52C397.972 274.52 389.072 274.03 388.752 273.63C388.432 273.22 390.022 272.81 390.022 272.81V272.8Z" fill="#CCFFF6"/>
<path d="M387.881 274.87C387.881 274.87 395.961 275.07 396.641 275.39C397.311 275.71 395.831 276.18 395.831 276.18C395.831 276.18 387.261 275.64 386.871 275.37C386.481 275.09 387.891 274.87 387.891 274.87H387.881Z" fill="#CCFFF6"/>
<path d="M385.181 277.84C385.181 277.84 393.381 277.75 393.931 278.23C394.481 278.7 392.691 279.54 392.691 279.54C392.691 279.54 384.231 279.09 383.951 278.68C383.671 278.27 385.181 277.85 385.181 277.85V277.84Z" fill="#CCFFF6"/>
</g>
</g>
<path d="M375.74 286.31C375.74 286.31 379.69 290.86 382.06 295.32C382.06 295.32 387.42 287.24 390.05 283.96C390.05 283.96 389.08 281.76 389.19 281.29C389.29 280.83 390.11 279.37 390.73 279.68C391.34 280 390.32 281.78 390.32 281.78C390.32 281.78 390.78 282.75 391.41 281.78C392.04 280.81 392.62 279.16 392.71 278.11C392.71 278.11 393.17 276.91 394.27 278.15C395.35 279.39 394.89 283.26 392.73 285.86C392.73 285.86 390.71 296.9 382.71 301.96C382.71 301.96 375.78 298.88 370.5 291.26L375.76 286.31H375.74Z" fill="#F8C7A2"/>
<path d="M377.519 286.26C376.559 284.92 375.619 283.73 374.899 283.11C372.619 281.11 369.409 277.89 365.769 280.39C362.569 282.59 365.709 289.38 369.539 294.09C372.199 292.31 375.559 289.61 377.509 286.27L377.519 286.26Z" fill="#EA5353"/>
<path d="M120.791 93.7402C120.791 93.7402 117.111 103.46 117.911 105.93C118.711 108.4 141.521 106.88 143.191 105.93C144.871 104.98 140.611 93.7402 140.611 93.7402H120.781H120.791Z" fill="#391D0A"/>
<path d="M142.231 140.01H119.161C119.161 140.01 117.551 148.51 122.691 148.51H138.701C143.841 148.51 142.231 140.01 142.231 140.01Z" fill="#269EB2"/>
<path d="M142.319 109.33C146.779 111.42 149.789 124.27 145.999 132.11C144.629 134.94 139.079 133.21 140.799 130.6C143.329 126.77 143.039 122.24 141.409 118.09C140.819 116.6 140.039 115.15 139.179 113.76C138.909 113.32 138.609 112.89 138.309 112.46C137.929 111.92 138.599 112.82 138.249 112.38C136.259 109.86 140.299 106.79 142.319 109.33Z" fill="#FECE9A"/>
<path d="M137.78 106.63C137.78 106.63 133.73 106.16 133.71 100.93C133.71 100.93 132.05 101.78 130.64 101.84C129.23 101.9 127.6 100.72 127.6 100.72C127.6 100.72 127.13 105.72 123.46 106.64C123.22 108.64 121.84 118.86 131.01 118.86C140.18 118.86 137.97 108.6 137.78 106.64V106.63Z" fill="#FECE9A"/>
<path d="M118.51 109.33C114.05 111.42 111.04 124.27 114.83 132.11C116.2 134.94 121.75 133.21 120.03 130.6C117.5 126.77 117.79 122.24 119.42 118.09C120.01 116.6 120.79 115.15 121.65 113.76C121.92 113.32 122.22 112.89 122.52 112.46C122.9 111.92 122.23 112.82 122.58 112.38C124.57 109.86 120.53 106.79 118.51 109.33Z" fill="#FECE9A"/>
<path d="M143.39 108.4L136.57 106.14C135.58 110.53 131.6 110.67 130.77 110.65C130.77 110.65 130.74 110.65 130.69 110.65C130.64 110.65 130.61 110.65 130.61 110.65C129.77 110.68 125.97 110.32 124.97 105.93L117.98 108.4L119.67 115.69C119.67 115.69 118.66 120.74 121.18 124.42C123.7 128.1 119.16 140.11 119.16 140.11H142.22C142.22 140.11 137.67 128.1 140.2 124.42C142.72 120.74 141.71 115.69 141.71 115.69L143.4 108.4H143.39Z" fill="#FFA131"/>
<path d="M133.6 125.77C133.6 126.6 133.02 127.28 132.31 127.28H128.87C128.16 127.28 127.58 126.6 127.58 125.77V115.81C127.58 114.98 128.16 114.3 128.87 114.3H132.31C133.02 114.3 133.6 114.98 133.6 115.81V125.77Z" fill="#293147"/>
<path d="M133.6 126.78C133.6 127.61 133.02 128.29 132.31 128.29H128.87C128.16 128.29 127.58 127.61 127.58 126.78V116.82C127.58 115.99 128.16 115.31 128.87 115.31H132.31C133.02 115.31 133.6 115.99 133.6 116.82V126.78Z" fill="#505F7F"/>
<path d="M130.35 122.14C129.66 121.55 128.38 123.95 128.38 123.95C128.38 123.95 127.54 122.6 127.23 122.4C126.92 122.2 127.32 124.65 127.32 124.65C127.32 124.65 124.65 126.91 120.43 127.13C116.34 127.34 113.68 128.8 113.68 128.8C114.03 131.74 114.67 134.39 119.33 134.07C123.99 133.75 129.25 127.62 129.25 127.62C129.25 127.62 132.32 126.28 132.3 125.38C132.28 124.48 131.04 122.74 130.34 122.15L130.35 122.14Z" fill="#FECE9A"/>
<path d="M117.98 108.4C117.98 108.4 112.89 110.36 112.83 119.97L118.55 122.05C118.55 122.05 119.93 119.96 119.78 116.36L117.99 108.4H117.98Z" fill="#F48914"/>
<path d="M143.23 108.4C143.23 108.4 147.56 110.61 147.62 120.22L141.98 122.05C141.98 122.05 140.72 120.1 141.35 116.51L143.22 108.4H143.23Z" fill="#F48914"/>
<path d="M140.27 92.1502C140.27 99.0302 135.97 104.61 130.68 104.61C125.39 104.61 121.09 99.0302 121.09 92.1502C121.09 85.2702 125.39 79.6802 130.68 79.6802C135.97 79.6802 140.27 85.2602 140.27 92.1502Z" fill="#FECE9A"/>
<path d="M122.491 93.7404C122.491 94.6204 121.951 95.3404 121.271 95.3404C120.591 95.3404 120.051 94.6304 120.051 93.7404C120.051 92.8504 120.591 92.1504 121.271 92.1504C121.951 92.1504 122.491 92.8604 122.491 93.7404Z" fill="#FECE9A"/>
<path d="M141.11 93.7404C141.11 94.6204 140.57 95.3404 139.89 95.3404C139.21 95.3404 138.67 94.6304 138.67 93.7404C138.67 92.8504 139.21 92.1504 139.89 92.1504C140.57 92.1504 141.11 92.8604 141.11 93.7404Z" fill="#FECE9A"/>
<path d="M121.799 92.31C121.799 92.31 128.539 91.58 130.099 85.47C130.099 85.47 135.609 91.48 139.369 92.31C139.369 92.31 140.039 91.87 140.829 92.73C140.829 92.73 142.419 78.06 130.679 78.66C118.939 79.26 120.569 92.46 120.569 92.46C120.569 92.46 121.329 91.77 121.809 92.31H121.799Z" fill="#391D0A"/>
<path d="M130.489 122.14C131.179 121.55 132.459 123.95 132.459 123.95C132.459 123.95 133.299 122.6 133.609 122.4C133.919 122.2 133.519 124.65 133.519 124.65C133.519 124.65 136.189 126.91 140.409 127.13C144.499 127.34 147.159 128.8 147.159 128.8C146.809 131.74 146.169 134.39 141.509 134.07C136.849 133.75 131.589 127.62 131.589 127.62C131.589 127.62 128.519 126.28 128.539 125.38C128.559 124.48 129.799 122.74 130.499 122.15L130.489 122.14Z" fill="#FECE9A"/>
<path d="M129.001 183.47C129.001 185.39 127.451 186.94 125.531 186.94C123.611 186.94 122.061 185.39 122.061 183.47V148.54C122.061 146.62 123.621 145.07 125.531 145.07C127.451 145.07 129.001 146.63 129.001 148.54V183.47Z" fill="#FECE9A"/>
<path d="M122.12 181.85C122.05 183.47 121.85 184.81 124.21 185.1C126.58 185.39 128.09 185.02 128.47 183.79C128.71 183.02 129.04 178.09 128.99 176.23C128.99 176.23 129.45 178.05 129.56 179.31C129.67 180.56 129.55 182.4 129.86 184.92C130.14 187.16 129.98 188.5 127.9 189.6C126.49 190.35 124.57 190.34 122.8 189.24C121.7 188.55 120.96 187.61 121.06 185.68C121.16 183.75 121.4 180.19 121.41 179.13C121.42 178.07 121.5 176.69 122.04 176.08C122.04 176.08 122.21 179.71 122.11 181.86L122.12 181.85Z" fill="#4A2551"/>
<path d="M129 174.81L129.99 147.24C129.99 144.46 127.74 142.21 124.96 142.21C122.18 142.21 119.93 144.46 119.93 147.24L122.06 174.81H129.01H129Z" fill="#30AAC6"/>
<path d="M110.4 156.28C108.64 157.05 106.6 156.25 105.83 154.49C105.06 152.73 105.86 150.69 107.62 149.92L139.63 135.94C141.39 135.17 143.44 135.97 144.2 137.73C144.97 139.49 144.16 141.54 142.41 142.3L110.4 156.27V156.28Z" fill="#FECE9A"/>
<path d="M111.86 155.57C110.4 156.28 109.26 157 108.05 154.95C106.84 152.9 106.57 151.36 107.54 150.53C108.15 150.01 112.53 147.72 114.26 147.03C114.26 147.03 112.4 147.33 111.21 147.74C110.02 148.14 108.38 148.98 105.95 149.7C103.79 150.34 102.62 151.02 102.44 153.37C102.32 154.97 103.1 156.71 104.81 157.9C105.88 158.63 107.05 158.93 108.77 158.07C110.5 157.21 113.67 155.56 114.63 155.13C115.6 154.7 116.84 154.08 117.18 153.33C117.18 153.33 113.79 154.63 111.86 155.58V155.57Z" fill="#4A2551"/>
<path d="M117.98 152.97L144.46 143.74C147.01 142.63 148.17 139.66 147.06 137.12C145.95 134.57 142.98 133.41 140.44 134.52L114.68 146.84L117.99 152.97H117.98Z" fill="#3AC6DD"/>
<path d="M97.4305 220.21C97.4305 220.21 99.8605 236.26 99.9405 239.06C100.02 241.86 96.5405 255.74 96.3005 256.17C96.0605 256.6 95.2205 259.99 93.5305 260.49L93.2705 255.09C93.2705 255.09 94.5105 242.58 95.4805 238.69L92.7305 222.65L97.4205 220.2L97.4305 220.21Z" fill="#FECE9A"/>
<path d="M68.521 329.65C68.521 329.65 68.131 331.95 66.851 332.73C65.571 333.51 62.661 335.77 64.361 337.16C66.071 338.55 72.821 336.98 74.171 335.32C75.521 333.65 76.161 329.86 76.161 329.86L68.521 329.64V329.65Z" fill="#843D2C"/>
<path d="M97.0619 329.65C97.0619 329.65 97.4519 331.95 98.7319 332.73C100.012 333.51 102.922 335.77 101.222 337.16C99.5119 338.55 92.7619 336.98 91.4119 335.32C90.0619 333.65 89.4219 329.86 89.4219 329.86L97.0619 329.64V329.65Z" fill="#843D2C"/>
<path d="M66.1614 257.07L93.0714 253.94C93.0714 253.94 93.3513 261.45 93.6213 267.3L98.0413 329.87H89.0514L81.8113 279.14C81.2313 276.72 80.9313 270.77 80.9913 269.53C80.9913 269.53 77.4714 324.72 76.6614 329.87H68.0514C68.0514 329.87 65.3514 278.43 66.1614 257.08V257.07Z" fill="#5874B7"/>
<path d="M76.6105 202.8C76.6105 202.8 75.9705 207.38 72.5605 209.4C72.5605 209.4 78.2105 213.77 83.5305 210.04C83.5305 210.04 82.2506 205.88 82.0406 202.8H76.6105Z" fill="#F8C7A2"/>
<path d="M89.9501 191.6C89.9501 199.32 85.1302 205.59 79.1802 205.59C73.2302 205.59 68.4102 199.33 68.4102 191.6C68.4102 183.87 73.2302 177.61 79.1802 177.61C85.1302 177.61 89.9501 183.87 89.9501 191.6Z" fill="#F8C7A2"/>
<path d="M74.6006 207.57C74.6006 207.57 77.6906 212.04 83.1106 207.88C83.1106 207.88 92.0706 209.35 94.2406 211.16C94.2406 211.16 93.7206 252.27 94.2706 256.79L65.2106 258.23C65.2106 258.23 64.0706 214.42 63.8906 212.24L74.6006 207.56V207.57Z" fill="#64413B"/>
<path d="M69.7097 181.16C69.7097 181.16 66.4497 180.25 68.4197 193.69C68.4197 193.69 70.5298 186.7 72.1498 185.43C72.1498 185.43 82.3097 187.1 87.7497 184.7C88.5897 186.51 89.8098 190.17 89.8298 193.7C89.8298 193.7 90.5397 188.45 89.7497 183.42C90.1997 182.98 82.3197 170.58 69.7097 181.17V181.16Z" fill="#A3481A"/>
<path d="M69.9998 193.39C69.9998 194.38 69.3898 195.18 68.6298 195.18C67.8698 195.18 67.2598 194.38 67.2598 193.39C67.2598 192.4 67.8698 191.6 68.6298 191.6C69.3898 191.6 69.9998 192.4 69.9998 193.39Z" fill="#F8C7A2"/>
<path d="M90.9002 193.39C90.9002 194.38 90.2902 195.18 89.5302 195.18C88.7702 195.18 88.1602 194.38 88.1602 193.39C88.1602 192.4 88.7702 191.6 89.5302 191.6C90.2902 191.6 90.9002 192.4 90.9002 193.39Z" fill="#F8C7A2"/>
<path d="M94.2511 211.16C94.2511 211.16 98.2611 216.51 97.9411 221.77C97.9411 221.77 97.3411 223.27 94.1211 223.15L94.2511 211.16Z" fill="#7A544F"/>
<path d="M81.6602 220.03C81.6602 221.12 82.5102 221.74 83.5502 221.41L88.1301 219.96C89.1701 219.63 90.0201 218.47 90.0201 217.39V205.52C90.0201 204.43 89.1701 203.81 88.1301 204.14L83.5502 205.59C82.5102 205.92 81.6602 207.08 81.6602 208.16V220.03Z" fill="#DBD6D5"/>
<path d="M82.541 220.69C82.541 221.78 83.391 222.4 84.431 222.07L89.011 220.62C90.051 220.29 90.901 219.13 90.901 218.05V206.18C90.901 205.09 90.051 204.47 89.011 204.8L84.431 206.25C83.391 206.58 82.541 207.73 82.541 208.82V220.69Z" fill="#F2ECEB"/>
<path d="M66.3101 214.37C66.3101 214.37 66.3101 214.39 66.3401 214.44C66.3401 214.46 66.3501 214.47 66.3601 214.48C66.3601 214.49 66.3601 214.5 66.3601 214.5C66.3601 214.52 66.3701 214.54 66.3801 214.57C66.5501 215.09 66.7301 215.61 66.9201 216.12C67.5401 217.73 68.7001 219.03 69.5901 220.48C70.6701 222.25 72.2301 223.81 73.9301 225.04C74.5501 224.68 75.2401 224.32 76.0001 223.99C80.0801 222.2 81.8701 218.98 81.8701 218.98C81.8701 218.98 80.5601 216.72 80.9401 216.8C81.3201 216.87 82.6501 217.9 82.6501 217.9C82.6501 217.9 83.0101 215.07 83.9201 215.39C84.8201 215.71 86.6901 216.96 87.0501 217.84C87.4101 218.72 84.8801 221.19 84.8801 221.19C84.8801 221.19 81.0501 228.67 76.5801 230.72C73.8101 231.99 73.0701 232.09 71.8501 230.93C66.0101 226.87 60.4401 219.59 61.2101 215.96C60.3601 212.7 65.3601 211.25 66.3101 214.36V214.37Z" fill="#FECE9A"/>
<path d="M63.6405 224.33L60.8405 218.56C59.6805 216.16 60.6805 213.28 63.0805 212.12C65.4805 210.96 68.3605 211.96 69.5205 214.36L72.3205 220.13L63.6405 224.33Z" fill="#7A504B"/>
<path d="M265.421 213.64C265.421 213.64 264.421 231.54 267.291 233.65C270.161 235.75 284.091 235.75 285.131 232.84C286.171 229.93 285.131 212.94 285.131 212.94L265.431 213.64H265.421Z" fill="#A3481A"/>
<path d="M287.461 259.21H264.391C264.391 259.21 262.781 267.71 267.921 267.71H283.931C289.071 267.71 287.461 259.21 287.461 259.21Z" fill="#269EB2"/>
<path d="M287.55 228.52C292.01 230.6 295.02 243.46 291.23 251.3C289.86 254.13 284.31 252.4 286.03 249.79C288.56 245.96 288.27 241.42 286.64 237.28C286.05 235.79 285.27 234.34 284.41 232.95C284.14 232.51 283.84 232.08 283.54 231.65C283.16 231.11 283.83 232.01 283.48 231.57C281.49 229.05 285.53 225.98 287.55 228.52Z" fill="#FECE9A"/>
<path d="M283.02 225.82C283.02 225.82 278.97 225.34 278.95 220.12C278.95 220.12 277.29 220.97 275.88 221.03C274.47 221.08 272.84 219.91 272.84 219.91C272.84 219.91 272.37 224.91 268.7 225.83C268.46 227.83 267.08 238.05 276.25 238.05C285.42 238.05 283.21 227.79 283.02 225.83V225.82Z" fill="#FECE9A"/>
<path d="M263.741 228.52C259.281 230.6 256.271 243.46 260.061 251.3C261.431 254.13 266.981 252.4 265.261 249.79C262.731 245.96 263.021 241.42 264.651 237.28C265.241 235.79 266.021 234.34 266.881 232.95C267.151 232.51 267.451 232.08 267.751 231.65C268.131 231.11 267.461 232.01 267.811 231.57C269.801 229.05 265.761 225.98 263.741 228.52Z" fill="#FECE9A"/>
<path d="M288.621 227.59L281.801 225.34C280.811 229.73 276.831 229.87 276.001 229.85C276.001 229.85 275.971 229.85 275.921 229.85C275.871 229.85 275.841 229.85 275.841 229.85C275.001 229.88 271.201 229.52 270.201 225.13L263.211 227.6L264.901 234.89C264.901 234.89 263.891 239.94 266.411 243.62C268.931 247.3 264.391 259.31 264.391 259.31H287.451C287.451 259.31 282.901 247.3 285.431 243.62C287.951 239.94 286.941 234.89 286.941 234.89L288.631 227.6L288.621 227.59Z" fill="#6EB232"/>
<path d="M263.211 227.59C263.211 227.59 258.121 229.55 258.061 239.16L263.781 241.24C263.781 241.24 265.161 239.15 265.011 235.55L263.221 227.59H263.211Z" fill="#8BD346"/>
<path d="M288.461 227.59C288.461 227.59 292.791 229.8 292.851 239.41L287.211 241.24C287.211 241.24 285.951 239.29 286.581 235.7L288.451 227.59H288.461Z" fill="#8BD346"/>
<path d="M285.5 211.34C285.5 218.22 281.2 223.8 275.91 223.8C270.62 223.8 266.32 218.22 266.32 211.34C266.32 204.46 270.62 198.87 275.91 198.87C281.2 198.87 285.5 204.45 285.5 211.34Z" fill="#FECE9A"/>
<path d="M267.721 212.94C267.721 213.82 267.181 214.54 266.501 214.54C265.821 214.54 265.281 213.83 265.281 212.94C265.281 212.05 265.821 211.35 266.501 211.35C267.181 211.35 267.721 212.06 267.721 212.94Z" fill="#FECE9A"/>
<path d="M286.34 212.94C286.34 213.82 285.8 214.54 285.12 214.54C284.44 214.54 283.9 213.83 283.9 212.94C283.9 212.05 284.44 211.35 285.12 211.35C285.8 211.35 286.34 212.06 286.34 212.94Z" fill="#FECE9A"/>
<path d="M294.95 260.4C294.95 261.02 294.45 261.52 293.83 261.52H258.47C257.85 261.52 257.35 261.02 257.35 260.4C257.35 259.78 257.85 259.28 258.47 259.28H293.83C294.45 259.28 294.95 259.78 294.95 260.4Z" fill="#CECDCC"/>
<path d="M292.37 258.74C292.28 260.27 290.95 261.51 289.42 261.51H262.9C261.37 261.51 260.04 260.26 259.95 258.74L256.32 245.98C256.22 244.46 257.4 243.21 258.92 243.21H293.4C294.93 243.21 296.1 244.46 296 245.98L292.37 258.74Z" fill="#E2E2E2"/>
<path d="M279.791 251.55C279.791 253.55 278.171 255.18 276.161 255.18C274.151 255.18 272.531 253.56 272.531 251.55C272.531 249.54 274.151 247.92 276.161 247.92C278.171 247.92 279.791 249.54 279.791 251.55Z" fill="#CECDCC"/>
<path d="M280.861 302.99C281.061 304.9 282.761 306.29 284.671 306.09C286.581 305.89 287.971 304.19 287.771 302.28L284.211 267.53C284.011 265.62 282.311 264.23 280.401 264.43C278.491 264.63 277.111 266.33 277.301 268.24L280.861 302.99Z" fill="#FECE9A"/>
<path d="M287.53 300.67C287.77 302.28 288.1 303.58 285.78 304.11C283.45 304.64 281.91 304.43 281.41 303.25C281.09 302.51 280.26 297.64 280.12 295.78C280.12 295.78 279.84 297.64 279.86 298.9C279.88 300.16 280.19 301.97 280.13 304.51C280.08 306.77 280.37 308.08 282.56 308.97C284.04 309.57 285.95 309.36 287.59 308.09C288.61 307.29 289.25 306.28 288.96 304.37C288.66 302.46 288.06 298.94 287.95 297.89C287.83 296.84 287.62 295.47 287.01 294.91C287.01 294.91 287.21 298.54 287.53 300.67Z" fill="#4A2551"/>
<path d="M279.67 301.05L276.18 267.04C275.9 264.28 277.91 261.81 280.67 261.52C283.44 261.24 285.91 263.25 286.19 266.01L289.68 300.02L279.67 301.05Z" fill="#30AAC6"/>
<path d="M274.231 302.67C274.231 304.59 272.681 306.14 270.761 306.14C268.841 306.14 267.291 304.59 267.291 302.67V267.74C267.291 265.82 268.851 264.27 270.761 264.27C272.681 264.27 274.231 265.83 274.231 267.74V302.67Z" fill="#FECE9A"/>
<path d="M267.36 301.04C267.29 302.66 267.09 304 269.45 304.29C271.82 304.58 273.33 304.21 273.71 302.98C273.95 302.21 274.28 297.28 274.23 295.42C274.23 295.42 274.69 297.24 274.8 298.5C274.91 299.75 274.79 301.59 275.1 304.11C275.38 306.35 275.22 307.69 273.14 308.79C271.73 309.54 269.81 309.53 268.04 308.43C266.94 307.74 266.2 306.8 266.3 304.87C266.4 302.94 266.64 299.38 266.65 298.32C266.66 297.26 266.74 295.88 267.28 295.27C267.28 295.27 267.45 298.9 267.35 301.05L267.36 301.04Z" fill="#4A2551"/>
<path d="M275.22 300.62V266.44C275.22 263.66 272.97 261.41 270.19 261.41C267.41 261.41 265.16 263.66 265.16 266.44V300.62H275.22Z" fill="#30AAC6"/>
<path d="M265.67 211.79C265.67 211.79 270.42 211.89 271.07 211.34C271.72 210.79 272.47 208.2 272.47 208.2C272.47 208.2 272.36 210.93 273.01 211.34C273.66 211.75 278.94 211.63 279.91 211.58C280.88 211.53 281.31 209.16 281.31 209.16C281.31 209.16 281.85 211.3 282.5 211.63C283.15 211.96 285.83 211.63 285.83 211.63C285.83 211.63 287.96 197.93 275.39 197.95C262.98 197.97 265.68 211.78 265.68 211.78L265.67 211.79Z" fill="#A3481A"/>
<path d="M353.2 62.1401C350.49 62.1401 347.87 62.5101 345.38 63.1901C339.55 48.4801 325.2 38.0801 308.42 38.0801C296 38.0801 284.92 43.7701 277.63 52.6901C273.6 51.0901 269.21 50.1901 264.61 50.1901C251.29 50.1901 239.69 57.5901 233.7 68.4901C232.57 68.3201 231.43 68.2101 230.26 68.2101C219.43 68.2101 210.32 75.4901 207.51 85.4201H382.23C379.28 72.1001 367.41 62.1401 353.21 62.1401H353.2Z" fill="#367FAA"/>
<path d="M141.719 35.0501C140.899 26.5601 133.759 19.9301 125.059 19.9301C122.519 19.9301 120.119 20.5101 117.959 21.5301C114.549 9.43006 103.439 0.560059 90.2493 0.560059C79.2393 0.560059 69.6793 6.74006 64.8393 15.8201C63.2493 15.4501 61.6093 15.2301 59.9093 15.2301C48.6093 15.2301 39.3693 23.9801 38.5293 35.0701H141.719V35.0501Z" fill="#367FAA"/>
<path d="M460.631 35.0501C461.441 26.5601 468.591 19.9301 477.291 19.9301C479.831 19.9301 482.231 20.5101 484.391 21.5301C487.801 9.43006 498.911 0.560059 512.101 0.560059C523.111 0.560059 532.671 6.74006 537.511 15.8201C539.101 15.4501 540.741 15.2301 542.441 15.2301C553.741 15.2301 562.981 23.9801 563.821 35.0701H460.631V35.0501Z" fill="#367FAA"/>
<path d="M452 225.37C452.08 213.67 461.96 208.46 473.1 208.46C484.24 208.46 494.52 213.28 494.28 225.14C494.28 236.6 483.77 237.79 479.18 240.87C477.05 242.29 476.18 244.51 476.18 248.22V248.61H465.75V248.14C465.83 237.31 470.25 234.86 474.44 232.65C478.63 230.44 483.45 229.8 483.45 225.06C483.45 218.97 477.84 217.55 472.94 217.55C468.04 217.55 462.66 220.4 462.58 225.37H451.99H452ZM477.21 258.17C477.21 266.47 464.57 266.47 464.57 258.17C464.57 249.87 477.21 249.79 477.21 258.17Z" fill="#367FAA"/>
<path d="M443.751 70.66C446.621 66.4 448.291 61.27 448.291 55.76C448.291 40.99 436.321 29.02 421.551 29.02C406.781 29.02 394.811 40.99 394.811 55.76C394.811 70.53 406.781 82.5 421.551 82.5C427.821 82.5 433.581 80.32 438.141 76.71L446.641 80.35L443.751 70.67V70.66Z" fill="#E6BA47"/>
<path d="M410.27 56.57C410.27 58 409.11 59.16 407.68 59.16C406.25 59.16 405.09 58 405.09 56.57C405.09 55.14 406.25 53.98 407.68 53.98C409.11 53.98 410.27 55.14 410.27 56.57Z" fill="white"/>
<path d="M424.071 56.57C424.071 58 422.911 59.16 421.481 59.16C420.051 59.16 418.891 58 418.891 56.57C418.891 55.14 420.051 53.98 421.481 53.98C422.911 53.98 424.071 55.14 424.071 56.57Z" fill="white"/>
<path d="M437.869 56.57C437.869 58 436.709 59.16 435.279 59.16C433.849 59.16 432.689 58 432.689 56.57C432.689 55.14 433.849 53.98 435.279 53.98C436.709 53.98 437.869 55.14 437.869 56.57Z" fill="white"/>
<path d="M96.6402 98.3103C96.6402 105.85 85.1602 105.85 85.1602 98.3103C85.1602 90.7703 96.6402 90.7003 96.6402 98.3103ZM95.5602 53.3203V86.4703H86.1602V53.3203H95.5602Z" fill="#367FAA"/>
<path d="M179.131 45.4102H156.251C150.091 45.4102 145.051 50.4502 145.051 56.6102V69.7102C145.051 75.8702 150.091 80.9102 156.251 80.9102H159.051V92.7402L166.971 80.9102H179.131C185.291 80.9102 190.331 75.8702 190.331 69.7102V56.6102C190.331 50.4502 185.291 45.4102 179.131 45.4102Z" fill="#E6BA47"/>
<path d="M156.481 64.34C156.481 65.77 155.321 66.93 153.891 66.93C152.461 66.93 151.301 65.77 151.301 64.34C151.301 62.91 152.461 61.75 153.891 61.75C155.321 61.75 156.481 62.91 156.481 64.34Z" fill="white"/>
<path d="M170.282 64.34C170.282 65.77 169.122 66.93 167.692 66.93C166.262 66.93 165.102 65.77 165.102 64.34C165.102 62.91 166.262 61.75 167.692 61.75C169.122 61.75 170.282 62.91 170.282 64.34Z" fill="white"/>
<path d="M184.08 64.34C184.08 65.77 182.92 66.93 181.49 66.93C180.06 66.93 178.9 65.77 178.9 64.34C178.9 62.91 180.06 61.75 181.49 61.75C182.92 61.75 184.08 62.91 184.08 64.34Z" fill="white"/>
<path d="M543.09 83.3799C543.01 83.3799 542.94 83.3999 542.86 83.3999C542.54 81.6999 541.87 80.1199 540.93 78.7299C540.99 78.6799 541.05 78.6399 541.1 78.5899C542.03 77.6599 542.03 76.1599 541.1 75.2299C540.17 74.2999 538.66 74.2999 537.74 75.2299C537.69 75.2799 537.65 75.3499 537.6 75.3999C536.22 74.4599 534.63 73.7999 532.93 73.4699C532.93 73.3899 532.95 73.3199 532.95 73.2399C532.95 71.9299 531.89 70.8599 530.57 70.8599C529.25 70.8599 528.19 71.9299 528.19 73.2399C528.19 73.3199 528.21 73.3899 528.21 73.4699C526.51 73.7899 524.93 74.4599 523.54 75.3999C523.49 75.3399 523.45 75.2799 523.4 75.2299C522.47 74.2999 520.97 74.2999 520.04 75.2299C519.11 76.1599 519.11 77.6599 520.04 78.5899C520.09 78.6399 520.16 78.6799 520.21 78.7299C519.27 80.1099 518.61 81.6899 518.28 83.3999C518.2 83.3999 518.13 83.3799 518.05 83.3799C516.74 83.3799 515.67 84.4499 515.67 85.7599C515.67 87.0699 516.74 88.1399 518.05 88.1399C518.13 88.1399 518.2 88.1199 518.28 88.1199C518.6 89.8199 519.27 91.3999 520.21 92.7899C520.15 92.8399 520.09 92.8799 520.04 92.9299C519.11 93.8599 519.11 95.3699 520.04 96.2899C520.97 97.2099 522.47 97.2199 523.4 96.2899C523.45 96.2399 523.49 96.1699 523.54 96.1099C524.92 97.0499 526.5 97.7099 528.21 98.0399C528.21 98.1199 528.19 98.1899 528.19 98.2699C528.19 99.5799 529.26 100.65 530.57 100.65C531.88 100.65 532.95 99.5799 532.95 98.2699C532.95 98.1899 532.93 98.1199 532.93 98.0399C534.63 97.7199 536.21 97.0499 537.6 96.1099C537.65 96.1699 537.69 96.2299 537.74 96.2799C538.67 97.2099 540.17 97.2099 541.1 96.2799C542.03 95.3499 542.03 93.8399 541.1 92.9199C541.05 92.8699 540.98 92.8299 540.93 92.7799C541.87 91.3999 542.53 89.8199 542.86 88.1099C542.94 88.1099 543.01 88.1299 543.09 88.1299C544.4 88.1299 545.47 87.0699 545.47 85.7499C545.47 84.4299 544.4 83.3699 543.09 83.3699V83.3799ZM530.59 94.5399C525.74 94.5399 521.82 90.6099 521.82 85.7699C521.82 80.9299 525.75 76.9899 530.59 76.9899C535.43 76.9899 539.36 80.9199 539.36 85.7699C539.36 90.6199 535.43 94.5399 530.59 94.5399Z" fill="#E6BA47"/>
<path d="M569.79 117.61C569.71 117.56 569.62 117.54 569.53 117.5C570.19 115.46 570.4 113.35 570.2 111.3C570.29 111.28 570.38 111.28 570.47 111.25C572.03 110.79 572.92 109.16 572.46 107.6C572 106.04 570.37 105.15 568.81 105.61C568.72 105.64 568.64 105.68 568.55 105.71C567.61 103.87 566.28 102.22 564.63 100.85C564.68 100.77 564.74 100.7 564.79 100.62C565.57 99.1999 565.05 97.4099 563.62 96.6299C562.2 95.8499 560.41 96.3699 559.63 97.7999C559.58 97.8799 559.56 97.9699 559.52 98.0599C557.48 97.3999 555.37 97.1899 553.32 97.3899C553.3 97.2999 553.3 97.2099 553.27 97.1199C552.81 95.5599 551.18 94.6699 549.62 95.1299C548.06 95.5899 547.17 97.2199 547.63 98.7799C547.66 98.8699 547.7 98.9499 547.73 99.0399C545.89 99.9799 544.23 101.3 542.87 102.96C542.79 102.91 542.72 102.84 542.64 102.8C541.21 102.02 539.43 102.54 538.65 103.97C537.87 105.4 538.4 107.18 539.82 107.96C539.9 108.01 539.99 108.03 540.08 108.07C539.42 110.11 539.21 112.22 539.41 114.27C539.32 114.29 539.23 114.3 539.14 114.32C537.58 114.78 536.69 116.41 537.15 117.97C537.61 119.53 539.24 120.42 540.8 119.96C540.89 119.93 540.97 119.89 541.06 119.86C542 121.7 543.32 123.35 544.98 124.71C544.93 124.79 544.86 124.86 544.82 124.94C544.04 126.36 544.57 128.15 545.99 128.93C547.42 129.71 549.2 129.18 549.98 127.76C550.03 127.68 550.05 127.58 550.09 127.5C552.13 128.16 554.24 128.37 556.29 128.17C556.31 128.26 556.31 128.35 556.34 128.44C556.8 130 558.43 130.89 559.99 130.43C561.55 129.97 562.44 128.34 561.98 126.78C561.95 126.69 561.91 126.61 561.87 126.52C563.71 125.58 565.37 124.26 566.73 122.6C566.81 122.65 566.88 122.71 566.96 122.76C568.39 123.54 570.17 123.02 570.95 121.59C571.73 120.17 571.2 118.38 569.78 117.6L569.79 117.61ZM549.62 122.29C544.37 119.42 542.43 112.83 545.31 107.58C548.18 102.33 554.77 100.39 560.02 103.26C565.27 106.13 567.21 112.72 564.34 117.97C561.47 123.22 554.88 125.16 549.63 122.29H549.62Z" fill="#E6BA47"/>
<path d="M212.67 126.21H202.32V194.79H212.67V126.21Z" fill="#E6BA47"/>
<path d="M209.111 126.21H205.881V194.79H209.111V126.21Z" fill="#367FAA"/>
<path d="M202.32 194.78L207.5 202.06L212.67 194.78H202.32Z" fill="#A6E8E0"/>
<path d="M210.861 197.33H204.131L207.501 202.06L210.861 197.33Z" fill="#367FAA"/>
<path d="M212.67 122.59H202.32V126.21H212.67V122.59Z" fill="#367FAA"/>
<path d="M379.121 111.57H321.631V184.43H379.121V111.57Z" fill="#F2ECEB"/>
<path d="M337.651 120.73H327.521V134.89H337.651V120.73Z" fill="#D8D0D0"/>
<path d="M373.232 120.73H341.322V123.32H373.232V120.73Z" fill="#D8D0D0"/>
<path d="M373.232 127.201H341.322V129.791H373.232V127.201Z" fill="#D8D0D0"/>
<path d="M373.232 133.67H341.322V136.26H373.232V133.67Z" fill="#D8D0D0"/>
<path d="M373.232 140.141H327.521V142.731H373.232V140.141Z" fill="#D8D0D0"/>
<path d="M373.232 146.8H363.092V160.96H373.232V146.8Z" fill="#D8D0D0"/>
<path d="M359.422 146.8H327.512V149.39H359.422V146.8Z" fill="#D8D0D0"/>
<path d="M359.422 153.271H327.512V155.861H359.422V153.271Z" fill="#D8D0D0"/>
<path d="M359.422 159.73H327.512V162.32H359.422V159.73Z" fill="#D8D0D0"/>
<path d="M373.222 166.201H327.512V168.791H373.222V166.201Z" fill="#D8D0D0"/>
<path d="M373.222 172.67H327.512V175.26H373.222V172.67Z" fill="#D8D0D0"/>
<path d="M65.42 107.68C65.34 107.68 65.27 107.7 65.19 107.7C64.87 106 64.2 104.42 63.26 103.03C63.32 102.98 63.38 102.94 63.43 102.89C64.36 101.96 64.36 100.46 63.43 99.5302C62.5 98.6002 60.99 98.6002 60.07 99.5302C60.02 99.5802 59.98 99.6501 59.93 99.7001C58.55 98.7601 56.96 98.1002 55.26 97.7702C55.26 97.6902 55.28 97.6201 55.28 97.5401C55.28 96.2301 54.22 95.1602 52.9 95.1602C51.58 95.1602 50.52 96.2301 50.52 97.5401C50.52 97.6201 50.54 97.6902 50.54 97.7702C48.84 98.0902 47.26 98.7601 45.87 99.7001C45.82 99.6401 45.78 99.5802 45.73 99.5302C44.8 98.6002 43.3 98.6002 42.37 99.5302C41.44 100.46 41.44 101.96 42.37 102.89C42.42 102.94 42.49 102.98 42.54 103.03C41.6 104.41 40.94 105.99 40.61 107.7C40.53 107.7 40.46 107.68 40.38 107.68C39.07 107.68 38 108.75 38 110.06C38 111.37 39.07 112.44 40.38 112.44C40.46 112.44 40.53 112.42 40.61 112.42C40.93 114.12 41.6 115.7 42.54 117.09C42.48 117.14 42.42 117.18 42.37 117.23C41.44 118.16 41.44 119.66 42.37 120.59C43.3 121.52 44.8 121.52 45.73 120.59C45.78 120.54 45.82 120.47 45.87 120.42C47.25 121.36 48.83 122.02 50.54 122.35C50.54 122.43 50.52 122.5 50.52 122.58C50.52 123.89 51.59 124.96 52.9 124.96C54.21 124.96 55.28 123.89 55.28 122.58C55.28 122.5 55.26 122.43 55.26 122.35C56.96 122.03 58.54 121.36 59.93 120.42C59.98 120.48 60.02 120.54 60.07 120.59C61 121.52 62.5 121.52 63.43 120.59C64.36 119.66 64.36 118.16 63.43 117.23C63.38 117.18 63.31 117.14 63.26 117.09C64.2 115.71 64.86 114.13 65.19 112.42C65.27 112.42 65.34 112.44 65.42 112.44C66.73 112.44 67.8 111.38 67.8 110.06C67.8 108.74 66.73 107.68 65.42 107.68ZM52.91 118.83C48.06 118.83 44.14 114.9 44.14 110.06C44.14 105.22 48.07 101.29 52.91 101.29C57.75 101.29 61.68 105.22 61.68 110.06C61.68 114.9 57.75 118.83 52.91 118.83Z" fill="#E6BA47"/>
</svg>
